<svg xmlns="http://www.w3.org/2000/svg" width="68" height="68"><defs><clipPath id="a"><path fill="#fff" d="M34 .003C52.778.003 68 15.223 68 34c0 18.776-15.222 33.997-34 33.997S0 52.776 0 34 15.222.003 34 .003z"/></clipPath></defs><path fill="#fff" d="M34 .003C52.778.003 68 15.223 68 34c0 18.776-15.222 33.997-34 33.997S0 52.776 0 34 15.222.003 34 .003z"/><path fill="none" stroke="#54cff0" stroke-miterlimit="20" stroke-width="4" d="M34 .003C52.778.003 68 15.223 68 34c0 18.776-15.222 33.997-34 33.997S0 52.776 0 34 15.222.003 34 .003z" clip-path="url(&quot;#a&quot;)"/><text dominant-baseline="text-before-edge" style="line-height:22px" fill="#54cff0" font-family="'SFProDisplay-Heavy','SFProDisplay-Heavy'" font-size="26" font-style="none" font-weight="400" transform="translate(18 25)"><tspan style="font-kerning:normal">#2</tspan></text></svg>