<svg xmlns="http://www.w3.org/2000/svg" width="20" height="20"><path d="M13.66 11.945a.768.768 0 00-.79.22c-.2.214-.42.427-.63.632l-.36.359a1.355 1.355 0 01-2.04.007c-1.02-1.015-2.04-2.03-3.01-3.016a1.349 1.349 0 010-2.011c.32-.328.65-.666 1-.994a.755.755 0 00.22-.81 8.7 8.7 0 00-3.48-5.261.7.7 0 00-1-.024A8.208 8.208 0 000 7.847a8 8 0 002.36 5.638l.26.263c1.36 1.391 2.77 2.83 4.23 4.163a7.69 7.69 0 007.31 1.846 8.113 8.113 0 004.82-3.348.719.719 0 00.01-.908 8.74 8.74 0 00-5.33-3.556zm3.92 4.143a6.708 6.708 0 01-4.53 2.554 7.683 7.683 0 01-.87.051 6.745 6.745 0 01-4.9-2.119c-.68-.674-1.35-1.348-2.02-2.022-.61-.606-1.22-1.212-1.82-1.818A6.722 6.722 0 011.34 7.1a6.616 6.616 0 012.58-4.687.2.2 0 01.25 0 6.884 6.884 0 012.01 2.521 5.554 5.554 0 01.25.636c.06.153.12.311.18.46a.529.529 0 01-.15.645c-.07.082-.15.164-.23.246a4.9 4.9 0 00-.73.838 2.559 2.559 0 00.35 3.267 79.625 79.625 0 003.41 3.331 2.568 2.568 0 003.16.029c.19-.154.37-.326.54-.491.14-.135.29-.273.44-.4a.6.6 0 01.48-.138 7.312 7.312 0 013.71 2.487.194.194 0 01-.01.243zm-3.61-9.764a.634.634 0 00.76-.134c.96-.957 1.76-1.753 2.5-2.5a.787.787 0 00.23-.494.608.608 0 00-.18-.439.66.66 0 00-.97.024c-1.01 1-1.78 1.771-2.49 2.507a1.126 1.126 0 00-.19.325l-.06.141a.735.735 0 00.4.569zm-3.12-1.628a.656.656 0 00.65-.744V.74a.653.653 0 00-.65-.739.657.657 0 00-.65.739v3.215a.667.667 0 00.65.745zm8.45 3.8q-.795-.005-1.62-.005h-1.66a.646.646 0 00-.71.647.632.632 0 00.7.646h3.28a.633.633 0 00.71-.639.644.644 0 00-.7-.645z" fill="#fff" fill-rule="evenodd"/></svg>