<svg xmlns="http://www.w3.org/2000/svg" width="22" height="20"><path d="M10.95 20H2.07a1.954 1.954 0 01-2.06-1.985Q-.005 13.022 0 8.03a2.126 2.126 0 011.09-1.815c2.35-1.581 4.69-3.171 7.04-4.756.5-.341 1-.686 1.51-1.018a2.312 2.312 0 012.78.05c2.73 1.851 5.45 3.715 8.21 5.527A2.734 2.734 0 0122 8.574c-.06 3.139-.01 6.281 0 9.421a2.019 2.019 0 01-2.01 2C16.98 20 13.96 20 10.95 20zm9.59-12.311a4.511 4.511 0 00-.38-.329q-4.29-2.9-8.59-5.8a.935.935 0 00-1.19.02c-2.8 1.9-5.61 3.784-8.42 5.677-.17.113-.32.251-.51.4a2.96 2.96 0 00.28.224c2.14 1.392 4.28 2.775 6.41 4.182a.527.527 0 00.69-.051c2.04-1.319 2.3-1.325 4.31 0a.594.594 0 00.78 0c1.93-1.272 3.87-2.525 5.81-3.784.26-.173.51-.343.81-.541zM20.53 18.5c-.21-.171-.31-.263-.42-.335q-4.185-2.737-8.38-5.468a1.018 1.018 0 00-1.51.018q-3.27 2.134-6.54 4.272c-.71.462-1.42.927-2.12 1.392 0 .047.01.1.01.144a3.243 3.243 0 00.67.144q8.745.012 17.5 0a4.332 4.332 0 00.79-.167zm-5.76-5.437c1.97 1.286 3.87 2.527 5.81 3.79v-7.57c-1.96 1.277-3.86 2.509-5.81 3.779zm-13.35 3.78l5.79-3.783-5.79-3.766v7.548z" fill="#fff" fill-rule="evenodd"/></svg>