<svg xmlns="http://www.w3.org/2000/svg" width="19" height="19"><path d="M0 9.489a9.5 9.5 0 119.483 9.5A9.516 9.516 0 010 9.489zm17.385.143a7.885 7.885 0 10-8.033 7.743 7.871 7.871 0 008.032-7.743zm-9.4 1.595c.821-.828 1.623-1.637 2.428-2.445q1.232-1.236 2.467-2.466a.783.783 0 011.015-.192.758.758 0 01.183 1.224c-.768.791-1.552 1.566-2.331 2.347q-1.557 1.561-3.117 3.12a.81.81 0 01-1.321 0q-1.2-1.2-2.4-2.407a.721.721 0 01-.173-.807.773.773 0 01.643-.531.8.8 0 01.706.274l1.691 1.683c.062.059.124.114.213.2z" fill="#fff" fill-rule="evenodd"/></svg>