<svg xmlns="http://www.w3.org/2000/svg" width="99" height="100"><defs><clipPath id="a"><path fill="#fff" d="M49.5.278C76.838.278 99 22.43 99 49.756c0 27.327-22.162 49.48-49.5 49.48S0 77.083 0 49.756C0 22.43 22.162.278 49.5.278z"/></clipPath></defs><path fill="#fff" d="M49.5.278C76.838.278 99 22.43 99 49.756c0 27.327-22.162 49.48-49.5 49.48S0 77.083 0 49.756C0 22.43 22.162.278 49.5.278z"/><path fill="none" stroke="#54cff0" stroke-miterlimit="20" stroke-width="4" d="M49.5.278C76.838.278 99 22.43 99 49.756c0 27.327-22.162 49.48-49.5 49.48S0 77.083 0 49.756C0 22.43 22.162.278 49.5.278z" clip-path="url(&quot;#a&quot;)"/><text dominant-baseline="text-before-edge" style="line-height:22px" fill="#54cff0" font-family="'SFProDisplay-Heavy','SFProDisplay-Heavy'" font-size="30" font-style="none" font-weight="400" transform="translate(32 37)"><tspan style="font-kerning:normal">#4</tspan></text></svg>