<svg xmlns="http://www.w3.org/2000/svg" width="68" height="68"><defs><clipPath id="a"><path fill="#fff" d="M34-.01c18.778 0 34 15.224 34 34.004 0 18.78-15.222 34.004-34 34.004S0 52.774 0 33.994C0 15.214 15.222-.01 34-.01z"/></clipPath></defs><path fill="#fff" d="M34-.01c18.778 0 34 15.224 34 34.004 0 18.78-15.222 34.004-34 34.004S0 52.774 0 33.994C0 15.214 15.222-.01 34-.01z"/><path fill="none" stroke="#54cff0" stroke-miterlimit="20" stroke-width="4" d="M34-.01c18.778 0 34 15.224 34 34.004 0 18.78-15.222 34.004-34 34.004S0 52.774 0 33.994C0 15.214 15.222-.01 34-.01z" clip-path="url(&quot;#a&quot;)"/><text dominant-baseline="text-before-edge" style="line-height:22px" fill="#54cff0" font-family="'SFProDisplay-Heavy','SFProDisplay-Heavy'" font-size="26" font-style="none" font-weight="400" transform="translate(20 25)"><tspan style="font-kerning:normal">#1</tspan></text></svg>