<svg xmlns="http://www.w3.org/2000/svg" width="100" height="99"><defs><clipPath id="a"><path fill="#fff" d="M50.5.076c27.338 0 49.5 22.152 49.5 49.48 0 27.325-22.162 49.478-49.5 49.478S1 76.88 1 49.555C1 22.228 23.162.075 50.5.075z"/></clipPath></defs><path fill="#fff" d="M50.5.076c27.338 0 49.5 22.152 49.5 49.48 0 27.325-22.162 49.478-49.5 49.478S1 76.88 1 49.555C1 22.228 23.162.075 50.5.075z"/><path fill="none" stroke="#54cff0" stroke-miterlimit="20" stroke-width="4" d="M50.5.076c27.338 0 49.5 22.152 49.5 49.48 0 27.325-22.162 49.478-49.5 49.478S1 76.88 1 49.555C1 22.228 23.162.075 50.5.075z" clip-path="url(&quot;#a&quot;)"/><text dominant-baseline="text-before-edge" style="line-height:22px" fill="#54cff0" font-family="'SFProDisplay-Heavy','SFProDisplay-Heavy'" font-size="30" font-style="none" font-weight="400" transform="translate(33 37)"><tspan style="font-kerning:normal">#6</tspan></text></svg>